<?xml version="1.0" standalone="no"?>
<!DOCTYPE svg PUBLIC "-//W3C//DTD SVG 20010904//EN"
 "http://www.w3.org/TR/2001/REC-SVG-20010904/DTD/svg10.dtd">
<svg version="1.0" xmlns="http://www.w3.org/2000/svg"
 viewBox="0 0 2600.000000 2600.000000"
 preserveAspectRatio="xMidYMid meet">
<metadata>
Created by potrace 1.15, written by Peter Selinger 2001-2017
</metadata>
<g transform="translate(0.000000,2600.000000) scale(0.100000,-0.100000)"
fill="#000000" stroke="none">
<path d="M6585 20178 c-57 -20 -132 -78 -216 -166 -185 -193 -350 -452 -564
-887 -703 -1431 -1334 -3761 -1650 -6095 -271 -2011 -241 -3762 76 -4406 52
-106 122 -187 171 -199 28 -6 1323 -245 1331 -245 2 0 -15 60 -38 133 -338
1048 -267 3211 186 5692 486 2661 1289 4963 2042 5853 43 50 74 92 69 92 -4 0
-299 54 -655 120 -355 66 -663 120 -684 119 -21 0 -51 -5 -68 -11z"/>
<path d="M8573 19812 c-208 -73 -473 -422 -767 -1011 -940 -1879 -1732 -5354
-1846 -8096 -53 -1273 82 -2308 337 -2585 42 -45 54 -53 95 -57 90 -10 210 69
344 228 462 547 1016 1866 1454 3465 94 341 235 913 227 920 -3 3 -233 50
-510 103 -342 66 -515 104 -538 117 -111 65 -158 236 -145 524 16 360 120 839
234 1084 90 190 194 294 297 296 17 0 256 -43 533 -96 276 -53 505 -95 508
-92 14 15 109 694 159 1139 201 1809 149 3287 -138 3878 -44 92 -126 187 -167
196 -14 2 -48 -3 -77 -13z"/>
<path d="M4567 18180 c-99 -63 -250 -286 -407 -605 -590 -1193 -1085 -3297
-1202 -5110 -16 -252 -16 -909 0 -1095 37 -418 106 -701 189 -771 25 -21 57
-30 188 -52 86 -16 159 -27 160 -25 2 2 8 167 14 368 29 948 121 1856 302
2960 233 1433 616 2986 1011 4113 38 109 68 200 66 202 -5 5 -230 45 -253 45
-12 0 -42 -13 -68 -30z"/>
<path d="M18108 18095 c-197 -72 -469 -436 -758 -1015 -930 -1860 -1726 -5338
-1841 -8045 -15 -352 -6 -1124 15 -1375 54 -626 152 -1027 302 -1231 19 -26
46 -54 60 -64 16 -10 265 -61 697 -141 370 -68 675 -124 678 -124 3 0 -7 37
-23 83 -39 108 -92 320 -122 487 -247 1355 -54 3773 500 6280 492 2225 1180
4045 1819 4809 47 57 85 105 83 107 -8 8 -1305 244 -1337 243 -20 0 -53 -7
-73 -14z"/>
<path d="M20103 17731 c-96 -33 -198 -117 -309 -255 -572 -709 -1232 -2453
-1689 -4460 -347 -1527 -554 -2984 -616 -4326 -13 -290 -7 -1163 10 -1355 52
-587 120 -912 242 -1161 64 -132 126 -194 191 -194 198 1 491 365 812 1007 53
106 96 196 96 200 0 5 -13 14 -29 21 -60 27 -143 96 -192 160 -147 193 -234
505 -281 1007 -17 183 -17 936 0 1180 103 1451 386 2908 816 4200 359 1077
734 1725 1106 1910 98 48 147 58 252 53 l91 -6 -6 277 c-11 462 -51 849 -123
1168 -65 293 -177 528 -275 578 -34 18 -32 18 -96 -4z"/>
<path d="M2709 15528 c-85 -167 -174 -496 -215 -800 -17 -122 -25 -430 -12
-443 6 -6 190 -45 214 -45 6 0 16 37 23 83 32 208 162 834 227 1091 14 54 21
102 17 106 -4 4 -59 16 -121 27 l-113 20 -20 -39z"/>
<path d="M20433 15244 c-49 -24 -152 -139 -225 -250 -342 -521 -721 -1557
-987 -2699 -382 -1638 -529 -3246 -385 -4200 33 -217 104 -425 157 -459 23
-15 775 -151 784 -142 3 3 -4 42 -16 88 -26 104 -55 279 -78 473 -15 124 -18
235 -18 645 0 484 5 602 41 1010 125 1415 478 3022 927 4216 167 445 388 889
560 1124 26 35 47 67 47 70 0 4 -753 141 -770 140 -3 0 -20 -8 -37 -16z"/>
<path d="M21726 14983 c-130 -107 -309 -399 -481 -788 -527 -1188 -960 -3032
-1089 -4640 -69 -854 -38 -1619 80 -1982 26 -81 62 -150 88 -173 59 -48 241
160 414 475 256 467 541 1251 762 2098 28 105 35 149 27 152 -7 2 -93 18 -192
35 -216 39 -270 60 -315 127 -41 63 -58 125 -71 259 -30 329 83 959 231 1280
89 194 191 294 300 294 25 0 130 -16 234 -35 104 -20 190 -34 192 -32 12 12
80 653 106 1007 20 274 17 1083 -5 1280 -48 423 -128 680 -213 680 -12 0 -42
-17 -68 -37z"/>
<path d="M7774 14408 c-70 -137 -144 -395 -189 -658 -33 -190 -48 -547 -24
-566 8 -6 230 -52 494 -103 264 -50 1997 -384 3850 -741 1854 -357 3381 -651
3394 -652 24 -3 25 0 43 107 47 284 104 596 158 869 33 165 57 302 55 305 -5
4 -1976 385 -6265 1211 -800 154 -1463 280 -1472 280 -11 0 -28 -19 -44 -52z"/>
<path d="M21491 11720 c-94 -204 -181 -554 -211 -850 -12 -113 -11 -353 1
-364 3 -4 268 -55 589 -114 l582 -108 19 30 c84 136 193 555 229 871 15 132
13 370 -2 382 -7 5 -265 56 -573 112 -308 56 -569 105 -581 107 -17 5 -26 -6
-53 -66z"/>
</g>
</svg>
